<svg xmlns="http://www.w3.org/2000/svg" version="1.1" xmlns:xlink="http://www.w3.org/1999/xlink" xmlns:svgjs="http://svgjs.dev/svgjs" width="1000" height="1000" viewBox="0 0 1000 1000"><rect width="1000" height="1000" fill="#000000"></rect><g transform="matrix(0.7,0,0,0.7,150.00040338463458,106.25)"><svg viewBox="0 0 320 360" data-background-color="#ffffff" preserveAspectRatio="xMidYMid meet" height="1125" width="1000" xmlns="http://www.w3.org/2000/svg" xmlns:xlink="http://www.w3.org/1999/xlink"><g id="tight-bounds" transform="matrix(1,0,0,1,0.00018440440442191175,0)"><svg viewBox="0 0 320 360" height="360" width="320"><g><svg></svg></g><g><svg viewBox="0 0 320 360" height="360" width="320"><g><path xmlns="http://www.w3.org/2000/svg" d="M294.684 112.125c-8.775-10.699-25.381-16.201-43-22.006-7.56-2.498-15.357-5.097-22.985-8.235-7.695-3.173-15.256-7.257-22.613-11.172-14.952-8.033-30.41-16.336-46.105-16.336-15.661 0-31.119 8.303-46.071 16.336-7.358 3.949-14.952 8.033-22.648 11.205-7.594 3.139-15.425 5.704-22.985 8.236-17.618 5.839-34.224 11.341-42.999 22.006-11.712 14.277-11.442 35.439-11.172 57.817 0.034 3.375 0.068 6.717 0.067 10.024 0 3.308-0.034 6.649-0.101 10.024-0.27 22.411-0.54 43.54 11.172 57.851 8.775 10.666 25.381 16.167 42.966 22.006 7.56 2.498 15.357 5.097 23.019 8.235 7.695 3.173 15.256 7.223 22.579 11.172 14.986 8.067 30.444 16.37 46.105 16.37 15.695 0 31.153-8.303 46.105-16.336 7.358-3.949 14.918-8.033 22.614-11.172 7.594-3.139 15.357-5.704 22.884-8.202 17.72-5.873 34.326-11.374 43.101-22.039 11.712-14.277 11.442-35.439 11.171-57.817-0.034-3.409-0.101-6.75-0.101-10.058 0-3.308 0.034-6.649 0.101-9.991 0.371-22.479 0.641-43.641-11.104-57.918zM305.552 103.215c-15.728-19.171-45.801-23.727-71.486-34.326-22.985-9.45-46.375-28.588-74.051-28.587-27.676 0-51.066 19.137-74.052 28.587-25.719 10.598-55.758 15.155-71.486 34.326-17.078 20.791-14.311 50.121-14.311 76.785 0 26.63-2.768 55.994 14.277 76.785 15.728 19.171 45.801 23.727 71.487 34.326 22.985 9.484 46.375 28.588 74.051 28.587 27.676 0 51.066-19.103 74.051-28.587 25.719-10.598 55.758-15.155 71.486-34.326 17.045-20.791 14.277-50.121 14.277-76.785 0.068-26.664 2.835-55.994-14.243-76.785zM309.872 189.923c0.304 23.221 0.574 45.059-12.083 60.483-9.518 11.577-26.664 17.281-44.822 23.289-7.56 2.498-15.29 5.063-22.715 8.134-7.493 3.071-14.952 7.088-22.175 10.969-15.458 8.303-31.355 16.842-48.062 16.842-16.707 0-32.604-8.539-47.995-16.808-7.257-3.915-14.75-7.932-22.243-11.003-7.527-3.105-15.256-5.67-22.748-8.134-18.192-6.008-35.338-11.712-44.823-23.289-12.623-15.391-12.353-37.262-12.083-60.415 0.034-3.375 0.101-6.683 0.101-9.991 0-3.308-0.034-6.615-0.067-9.991-0.304-23.154-0.574-45.025 12.083-60.415 9.518-11.577 26.664-17.247 44.822-23.289 7.527-2.498 15.256-5.063 22.749-8.134 7.493-3.105 14.986-7.122 22.242-11.003 15.391-8.269 31.322-16.842 47.995-16.842 16.673 0 32.604 8.539 47.995 16.808 7.257 3.915 14.75 7.932 22.243 11.003 7.493 3.105 15.256 5.637 22.715 8.134 18.158 6.008 35.338 11.712 44.822 23.289 12.657 15.425 12.387 37.262 12.083 60.416-0.034 3.409-0.101 6.717-0.101 9.99 0 3.308 0.034 6.615 0.067 9.957z" fill="#ffffff" fill-rule="nonzero" stroke="none" stroke-width="1" stroke-linecap="butt" stroke-linejoin="miter" stroke-miterlimit="10" stroke-dasharray="" stroke-dashoffset="0" font-family="none" font-weight="none" font-size="none" text-anchor="none" style="mix-blend-mode: normal" data-fill-palette-color="tertiary"></path></g><g transform="matrix(1,0,0,1,101.11524163568774,108)"><svg viewBox="0 0 117.76951672862454 144" height="144" width="117.76951672862454"><g><svg viewBox="0 0 117.76951672862454 144" height="144" width="117.76951672862454"><g><svg viewBox="0 0 117.76951672862454 144" height="144" width="117.76951672862454"><g><svg viewBox="0 0 117.76951672862454 144" height="144" width="117.76951672862454"><g id="textblocktransform"><svg viewBox="0 0 117.76951672862454 144" height="144" width="117.76951672862454" id="textblock"><g><svg viewBox="0 0 117.76951672862454 144" height="144" width="117.76951672862454"><g transform="matrix(1,0,0,1,0,0)"><svg width="117.76951672862454" viewBox="-3.3499999046325684 -36 33 40.349998474121094" height="144" data-palette-color="#ffffff"><path d="M21.2 4.35L21.2 4.35Q19.35 4.35 17.1 3.6 14.85 2.85 12.45 1.8 10.05 0.75 7.8-0.25L7.8-0.25Q6.55 1.15 5.13 1.9 3.7 2.65 2.05 2.65L2.05 2.65Q0.35 2.65-0.88 1.88-2.1 1.1-2.73 0.03-3.35-1.05-3.35-1.9L-3.35-1.9Q-3.35-2.85-2.48-3.58-1.6-4.3 0.6-4.3L0.6-4.3Q1.9-4.3 3.53-4.03 5.15-3.75 6.85-3.3L6.85-3.3Q8-5.3 9-8.05 10-10.8 10.95-13.83 11.9-16.85 12.9-19.8L12.9-19.8Q10.45-20.6 9.1-22.1 7.75-23.6 7.75-25.2L7.75-25.2Q7.75-26.2 8.22-27.15 8.7-28.1 9.55-28.75 10.4-29.4 11.6-29.4L11.6-29.4Q11.05-28.7 10.88-27.73 10.7-26.75 10.7-26.1L10.7-26.1Q10.7-24.35 11.48-23.18 12.25-22 13.4-21.3L13.4-21.3Q14.35-24.2 15.43-26.85 16.5-29.5 17.82-31.55 19.15-33.6 20.75-34.8 22.35-36 24.35-36L24.35-36Q25.45-36 26.68-35.52 27.9-35.05 28.78-33.93 29.65-32.8 29.65-30.7L29.65-30.7Q29.65-29 28.95-27.05 28.25-25.1 26.73-23.33 25.2-21.55 22.83-20.38 20.45-19.2 17.15-19.15L17.15-19.15Q17.05-19.15 16.93-19.15 16.8-19.15 16.55-19.15L16.55-19.15Q15.55-16.2 14.48-13.18 13.4-10.15 12.2-7.4 11-4.65 9.55-2.55L9.55-2.55Q11.65-1.95 14-1.23 16.35-0.5 18.68-0.03 21 0.45 22.8 0.45L22.8 0.45Q23.95 0.45 24.93 0.2 25.9-0.05 26.95-0.55L26.95-0.55Q26 2.05 24.58 3.2 23.15 4.35 21.2 4.35ZM1.65 0.95L1.65 0.95Q2.9 0.95 3.75 0.35 4.6-0.25 5.4-1.15L5.4-1.15Q3.85-1.75 2.48-2.15 1.1-2.55 0-2.55L0-2.55Q-0.95-2.55-1.35-2.23-1.75-1.9-1.75-1.4L-1.75-1.4Q-1.75-0.6-0.75 0.18 0.25 0.95 1.65 0.95ZM17-20.55L17-20.55Q19.2-20.65 20.95-21.9 22.7-23.15 23.93-24.98 25.15-26.8 25.8-28.68 26.45-30.55 26.45-31.95L26.45-31.95Q26.45-33.3 25.93-33.8 25.4-34.3 24.75-34.3L24.75-34.3Q23.25-34.3 21.93-32.4 20.6-30.5 19.43-27.38 18.25-24.25 17-20.55Z" opacity="1" transform="matrix(1,0,0,1,0,0)" fill="#000000" class="undefined-text-0" data-fill-palette-color="quaternary" id="text-0"></path></svg></g></svg></g></svg></g></svg></g><g></g></svg></g></svg></g></svg></g></svg></g><defs></defs></svg><rect width="320" height="360" fill="none" stroke="none" visibility="hidden"></rect></g></svg></g></svg>